<svg width="40" height="40" viewBox="0 0 40 40" fill="none" xmlns="http://www.w3.org/2000/svg">
<g clip-path="url(#clip0)">
<path d="M25.1675 2.175C24.4946 1.48635 23.6908 0.939151 22.8034 0.565557C21.916 0.191963 20.9628 -0.000488281 20 -0.000488281C19.0372 -0.000488281 18.084 0.191963 17.1966 0.565557C16.3092 0.939151 15.5054 1.48635 14.8325 2.175L13.2775 3.77L11.0525 3.7425C10.0894 3.7311 9.1337 3.91239 8.24166 4.27572C7.34962 4.63905 6.53923 5.17707 5.85815 5.85815C5.17707 6.53923 4.63905 7.34961 4.27572 8.24165C3.9124 9.13369 3.7311 10.0894 3.7425 11.0525L3.7675 13.2775L2.1775 14.8325C1.48885 15.5054 0.941654 16.3092 0.56806 17.1966C0.194466 18.084 0.00201416 19.0372 0.00201416 20C0.00201416 20.9628 0.194466 21.916 0.56806 22.8034C0.941654 23.6908 1.48885 24.4946 2.1775 25.1675L3.77 26.7225L3.7425 28.9475C3.7311 29.9106 3.9124 30.8663 4.27572 31.7583C4.63905 32.6504 5.17707 33.4608 5.85815 34.1419C6.53923 34.8229 7.34962 35.361 8.24166 35.7243C9.1337 36.0876 10.0894 36.2689 11.0525 36.2575L13.2775 36.2325L14.8325 37.8225C15.5054 38.5111 16.3092 39.0583 17.1966 39.4319C18.084 39.8055 19.0372 39.998 20 39.998C20.9628 39.998 21.916 39.8055 22.8034 39.4319C23.6908 39.0583 24.4946 38.5111 25.1675 37.8225L26.7225 36.23L28.9475 36.2575C29.9106 36.2689 30.8663 36.0876 31.7583 35.7243C32.6504 35.361 33.4608 34.8229 34.1419 34.1419C34.8229 33.4608 35.361 32.6504 35.7243 31.7583C36.0876 30.8663 36.2689 29.9106 36.2575 28.9475L36.2325 26.7225L37.8225 25.1675C38.5112 24.4946 39.0583 23.6908 39.4319 22.8034C39.8055 21.916 39.998 20.9628 39.998 20C39.998 19.0372 39.8055 18.084 39.4319 17.1966C39.0583 16.3092 38.5112 15.5054 37.8225 14.8325L36.23 13.2775L36.2575 11.0525C36.2689 10.0894 36.0876 9.13369 35.7243 8.24165C35.361 7.34961 34.8229 6.53923 34.1419 5.85815C33.4608 5.17707 32.6504 4.63905 31.7583 4.27572C30.8663 3.91239 29.9106 3.7311 28.9475 3.7425L26.7225 3.7675L25.1675 2.1775V2.175ZM25.885 17.135L18.385 24.635C18.2689 24.7514 18.1309 24.8438 17.9791 24.9068C17.8272 24.9698 17.6644 25.0022 17.5 25.0022C17.3356 25.0022 17.1728 24.9698 17.0209 24.9068C16.8691 24.8438 16.7311 24.7514 16.615 24.635L12.865 20.885C12.7488 20.7688 12.6566 20.6308 12.5937 20.479C12.5308 20.3271 12.4984 20.1644 12.4984 20C12.4984 19.8356 12.5308 19.6729 12.5937 19.521C12.6566 19.3692 12.7488 19.2312 12.865 19.115C12.9812 18.9988 13.1192 18.9066 13.271 18.8437C13.4229 18.7808 13.5856 18.7484 13.75 18.7484C13.9144 18.7484 14.0771 18.7808 14.229 18.8437C14.3808 18.9066 14.5188 18.9988 14.635 19.115L17.5 21.9825L24.115 15.365C24.3497 15.1303 24.6681 14.9984 25 14.9984C25.3319 14.9984 25.6503 15.1303 25.885 15.365C26.1197 15.5997 26.2516 15.9181 26.2516 16.25C26.2516 16.5819 26.1197 16.9003 25.885 17.135V17.135Z" fill="white"/>
</g>
<defs>
<clipPath id="clip0">
<rect width="40" height="40" fill="white"/>
</clipPath>
</defs>
</svg>
