<svg width="258" height="100" viewBox="0 0 258 100" fill="none" xmlns="http://www.w3.org/2000/svg">
<path d="M37.8257 74.6546C37.2017 74.6546 36.8897 74.4466 36.8897 74.0306V73.8969C36.8897 73.6295 37.172 73.2432 37.7365 72.7381C38.3308 72.2032 38.6279 71.609 38.6279 70.9553V45.4167H33.7698C33.0567 45.4167 32.4327 45.8327 31.8979 46.6647C31.3928 47.4967 30.9471 48.3286 30.5608 49.1606C30.1745 49.9926 29.7734 50.4086 29.3574 50.4086H28.8226C28.2283 50.4086 27.9757 50.0669 28.0649 49.3835L28.8671 44.1242C28.9563 43.3814 29.3722 43.01 30.1151 43.01H52.4892C53.232 43.01 53.6628 43.3814 53.7817 44.1242L54.7622 49.428C54.8217 49.7252 54.7771 49.9629 54.6285 50.1411C54.48 50.3194 54.272 50.4086 54.0045 50.4086H53.4697C53.1429 50.4086 52.8012 50.156 52.4446 49.6509C52.088 49.116 51.7761 48.5366 51.5086 47.9126C51.2412 47.2887 50.8698 46.7241 50.3944 46.219C49.919 45.6842 49.399 45.4167 48.8344 45.4167H43.9763V70.9553C43.9763 71.609 44.2735 72.2032 44.8677 72.7381C45.462 73.2432 45.7591 73.6295 45.7591 73.8969V74.0306C45.7591 74.4466 45.4323 74.6546 44.7786 74.6546H37.8257Z" fill="#89CB93"/>
<path d="M81.6407 70.9553C81.9081 71.609 82.3538 72.1884 82.9778 72.6935C83.6018 73.1986 83.9137 73.5998 83.9137 73.8969V74.0306C83.9137 74.4466 83.6018 74.6546 82.9778 74.6546H75.0443C74.4204 74.6546 74.1084 74.4466 74.1084 74.0306V73.8969C74.1084 73.6592 74.2866 73.4066 74.6432 73.1392C75.0295 72.8718 75.3563 72.5747 75.6237 72.2478C75.9209 71.8913 75.9654 71.4604 75.7575 70.9553L74.0192 66.5429H60.5591L58.91 70.9553C58.702 71.4604 58.7317 71.8913 58.9992 72.2478C59.2963 72.5747 59.6231 72.8718 59.9797 73.1392C60.366 73.4066 60.5591 73.6592 60.5591 73.8969V74.0306C60.5591 74.4466 60.2323 74.6546 59.5786 74.6546H54.5422C53.9182 74.6546 53.6062 74.4466 53.6062 74.0306V73.8969C53.6062 73.5998 53.9182 73.2135 54.5422 72.7381C55.1662 72.233 55.6119 71.6387 55.8793 70.9553L65.239 46.9321C65.4469 46.3676 65.2538 45.7436 64.6595 45.0602C64.0653 44.3768 63.7681 43.9459 63.7681 43.7676V43.6339C63.7681 43.2179 64.0207 43.01 64.5258 43.01H68.0469C69.2057 43.01 70.0079 43.5745 70.4536 44.7036L81.6407 70.9553ZM61.4505 64.1361H73.0833L67.1109 48.8932L61.4505 64.1361Z" fill="#89CB93"/>
<path d="M123.161 70.8662C123.28 71.5198 123.606 72.1141 124.141 72.6489C124.706 73.1838 124.988 73.5998 124.988 73.8969V74.0306C124.988 74.4466 124.661 74.6546 124.008 74.6546H117.277C116.624 74.6546 116.297 74.4466 116.297 74.0306V73.8969C116.297 73.6592 116.579 73.2729 117.144 72.7381C117.738 72.1735 117.961 71.5496 117.812 70.8662L114.291 50.8543L106.046 73.5403C105.778 74.2535 105.348 74.61 104.753 74.61C104.1 74.61 103.624 74.2683 103.327 73.5849L94.6805 50.2303L91.3378 70.8662C91.2189 71.5496 91.4566 72.1735 92.0509 72.7381C92.6749 73.2729 92.9869 73.6592 92.9869 73.8969V74.0306C92.9869 74.4466 92.6749 74.6546 92.0509 74.6546H87.5048C86.8808 74.6546 86.5688 74.4466 86.5688 74.0306V73.8969C86.5688 73.6295 86.8362 73.2284 87.371 72.6935C87.9059 72.129 88.2327 71.5198 88.3516 70.8662L92.3629 46.7984C92.452 46.1447 92.2143 45.5504 91.6498 45.0156C91.0852 44.4808 90.8029 44.0796 90.8029 43.8122V43.6785C90.8029 43.2328 91.0852 43.01 91.6498 43.01H95.5719C96.5524 43.01 97.2061 43.4408 97.533 44.3025L105.511 67.3897L113.534 44.3025C113.86 43.4408 114.47 43.01 115.361 43.01H119.506C120.041 43.01 120.308 43.2179 120.308 43.6339V43.7676C120.308 44.0351 120.145 44.3173 119.818 44.6145C119.491 44.8819 119.194 45.2087 118.927 45.595C118.689 45.9813 118.615 46.4716 118.704 47.0658L123.161 70.8662Z" fill="#89CB93"/>
<path d="M155.717 70.9553C155.985 71.609 156.43 72.1884 157.054 72.6935C157.678 73.1986 157.99 73.5998 157.99 73.8969V74.0306C157.99 74.4466 157.678 74.6546 157.054 74.6546H149.121C148.497 74.6546 148.185 74.4466 148.185 74.0306V73.8969C148.185 73.6592 148.363 73.4066 148.72 73.1392C149.106 72.8718 149.433 72.5747 149.7 72.2478C149.997 71.8913 150.042 71.4604 149.834 70.9553L148.096 66.5429H134.636L132.987 70.9553C132.779 71.4604 132.808 71.8913 133.076 72.2478C133.373 72.5747 133.7 72.8718 134.056 73.1392C134.443 73.4066 134.636 73.6592 134.636 73.8969V74.0306C134.636 74.4466 134.309 74.6546 133.655 74.6546H128.619C127.995 74.6546 127.683 74.4466 127.683 74.0306V73.8969C127.683 73.5998 127.995 73.2135 128.619 72.7381C129.243 72.233 129.688 71.6387 129.956 70.9553L139.316 46.9321C139.524 46.3676 139.33 45.7436 138.736 45.0602C138.142 44.3768 137.845 43.9459 137.845 43.7676V43.6339C137.845 43.2179 138.097 43.01 138.602 43.01H142.123C143.282 43.01 144.085 43.5745 144.53 44.7036L155.717 70.9553ZM135.527 64.1361H147.16L141.187 48.8932L135.527 64.1361Z" fill="#89CB93"/>
<path d="M199.722 43.01C200.317 43.01 200.614 43.2179 200.614 43.6339V43.7676C200.614 44.0648 200.287 44.451 199.633 44.9265C198.98 45.4019 198.534 45.9961 198.296 46.7093L189.605 73.1392C189.278 74.1495 188.565 74.6546 187.466 74.6546C186.485 74.6546 185.817 74.1792 185.46 73.2284L179.399 55.3113L173.159 73.1392C172.832 74.1495 172.193 74.6546 171.242 74.6546C170.291 74.6546 169.623 74.1792 169.237 73.2284L158.673 46.7538C158.436 46.1893 158.094 45.7287 157.648 45.3722C157.232 44.9859 156.876 44.6888 156.579 44.4808C156.311 44.2728 156.178 44.0202 156.178 43.7231V43.6339C156.178 43.2179 156.475 43.01 157.069 43.01H164.913C165.537 43.01 165.849 43.2179 165.849 43.6339V43.7676C165.849 44.0351 165.671 44.3025 165.314 44.5699C164.958 44.8076 164.646 45.1047 164.378 45.4613C164.141 45.7881 164.126 46.219 164.334 46.7538L172.178 67.9691L178.017 51.2554L176.501 46.7093C176.293 46.0853 175.833 45.5059 175.12 44.971C174.407 44.4362 174.05 44.0202 174.05 43.7231V43.6339C174.05 43.2179 174.332 43.01 174.897 43.01H182.741C183.306 43.01 183.588 43.2179 183.588 43.6339V43.7231C183.588 43.9608 183.395 44.1985 183.009 44.4362C182.652 44.6739 182.325 44.971 182.028 45.3276C181.731 45.6544 181.672 46.115 181.85 46.7093L188.58 67.9245L195.221 46.7093C195.429 46.0556 195.206 45.4762 194.552 44.971C193.928 44.4362 193.616 44.0499 193.616 43.8122V43.6785C193.616 43.2328 193.913 43.01 194.508 43.01H199.722Z" fill="#89CB93"/>
<path d="M228.401 70.9553C228.668 71.609 229.114 72.1884 229.738 72.6935C230.362 73.1986 230.674 73.5998 230.674 73.8969V74.0306C230.674 74.4466 230.362 74.6546 229.738 74.6546H221.805C221.181 74.6546 220.869 74.4466 220.869 74.0306V73.8969C220.869 73.6592 221.047 73.4066 221.404 73.1392C221.79 72.8718 222.117 72.5747 222.384 72.2478C222.681 71.8913 222.726 71.4604 222.518 70.9553L220.78 66.5429H207.319L205.67 70.9553C205.462 71.4604 205.492 71.8913 205.76 72.2478C206.057 72.5747 206.383 72.8718 206.74 73.1392C207.126 73.4066 207.319 73.6592 207.319 73.8969V74.0306C207.319 74.4466 206.993 74.6546 206.339 74.6546H201.303C200.679 74.6546 200.367 74.4466 200.367 74.0306V73.8969C200.367 73.5998 200.679 73.2135 201.303 72.7381C201.926 72.233 202.372 71.6387 202.64 70.9553L211.999 46.9321C212.207 46.3676 212.014 45.7436 211.42 45.0602C210.826 44.3768 210.528 43.9459 210.528 43.7676V43.6339C210.528 43.2179 210.781 43.01 211.286 43.01H214.807C215.966 43.01 216.768 43.5745 217.214 44.7036L228.401 70.9553ZM208.211 64.1361H219.844L213.871 48.8932L208.211 64.1361Z" fill="#89CB93"/>
<path d="M1.09939 98.96V95.0973H6.47749V94.1613H1.09939V90.462H7.13119V89.5112H0V99.9109H7.35403V98.96H1.09939Z" fill="black"/>
<path d="M20.5162 89.5112V97.9498L13.8159 89.5112H12.9096V99.9109H14.009V91.4723L20.6945 99.9109H21.6007V89.5112H20.5162Z" fill="black"/>
<path d="M35.3827 89.5112L31.3714 98.544L27.3898 89.5112H26.2013L30.8069 99.9109H31.8914L36.497 89.5112H35.3827Z" fill="black"/>
<path d="M40.9776 99.9109H42.077V89.5112H40.9776V99.9109Z" fill="black"/>
<path d="M56.7369 99.9109L54.1964 96.3453C55.7118 95.855 56.5735 94.711 56.5735 93.0768C56.5735 90.8483 54.969 89.5112 52.3245 89.5112H48.4321V99.9109H49.5314V96.6127H52.3245C52.6216 96.6127 52.889 96.5978 53.1565 96.5681L55.5335 99.9109H56.7369ZM52.2948 95.6767H49.5314V90.462H52.2948C54.3747 90.462 55.4741 91.4129 55.4741 93.0768C55.4741 94.711 54.3747 95.6767 52.2948 95.6767Z" fill="black"/>
<path d="M66.6858 100C69.8056 100 72.1381 97.7566 72.1381 94.711C72.1381 91.6654 69.8056 89.4221 66.6858 89.4221C63.5361 89.4221 61.2185 91.6803 61.2185 94.711C61.2185 97.7418 63.5361 100 66.6858 100ZM66.6858 99.0195C64.175 99.0195 62.303 97.1921 62.303 94.711C62.303 92.23 64.175 90.4026 66.6858 90.4026C69.1817 90.4026 71.0387 92.23 71.0387 94.711C71.0387 97.1921 69.1817 99.0195 66.6858 99.0195Z" fill="black"/>
<path d="M85.1803 89.5112V97.9498L78.4799 89.5112H77.5737V99.9109H78.6731V91.4723L85.3586 99.9109H86.2648V89.5112H85.1803Z" fill="black"/>
<path d="M102.525 89.5112L98.0532 97.2218L93.5368 89.5112H92.6305V99.9109H93.6854V91.6357L97.7709 98.5886H98.2909L102.376 91.5911V99.9109H103.431V89.5112H102.525Z" fill="black"/>
<path d="M110.891 98.96V95.0973H116.269V94.1613H110.891V90.462H116.922V89.5112H109.791V99.9109H117.145V98.96H110.891Z" fill="black"/>
<path d="M130.307 89.5112V97.9498L123.607 89.5112H122.701V99.9109H123.8V91.4723L130.486 99.9109H131.392V89.5112H130.307Z" fill="black"/>
<path d="M139.778 99.9109H140.877V90.462H144.532V89.5112H136.123V90.462H139.778V99.9109Z" fill="black"/>
<path d="M156.119 99.9109H157.219V89.5112H156.119V99.9109Z" fill="black"/>
<path d="M171.18 89.5112V97.9498L164.48 89.5112H163.574V99.9109H164.673V91.4723L171.359 99.9109H172.265V89.5112H171.18Z" fill="black"/>
<path d="M178.631 99.9109H179.73V89.5112H178.631V99.9109Z" fill="black"/>
<path d="M188.106 99.9109H189.205V90.462H192.86V89.5112H184.451V90.462H188.106V99.9109Z" fill="black"/>
<path d="M197.587 99.9109H198.687V89.5112H197.587V99.9109Z" fill="black"/>
<path d="M212.812 99.9109H213.971L209.217 89.5112H208.132L203.378 99.9109H204.522L205.77 97.1327H211.564L212.812 99.9109ZM206.171 96.2413L208.667 90.6552L211.163 96.2413H206.171Z" fill="black"/>
<path d="M220.161 99.9109H221.26V90.462H224.915V89.5112H216.506V90.462H220.161V99.9109Z" fill="black"/>
<path d="M229.642 99.9109H230.742V89.5112H229.642V99.9109Z" fill="black"/>
<path d="M244.513 89.5112L240.502 98.544L236.52 89.5112H235.332L239.937 99.9109H241.022L245.627 89.5112H244.513Z" fill="black"/>
<path d="M251.207 98.96V95.0973H256.585V94.1613H251.207V90.462H257.239V89.5112H250.108V99.9109H257.462V98.96H251.207Z" fill="black"/>
<path d="M161.014 6.5904C159.528 5.84757 154.329 11.7902 154.329 12.5331L155.071 13.2759C155.071 13.5235 155.963 13.7216 159.528 12.5331C163.985 11.0474 162.5 7.33323 161.014 6.5904Z" fill="#89CB93"/>
<path d="M149.872 8.07608C143.186 9.56175 140.958 19.2186 140.215 21.4471C140.215 22.1899 141.7 21.4471 142.443 21.4471C143.186 21.4471 156.557 6.59042 149.872 8.07608Z" fill="#89CB93"/>
<path d="M147.643 25.904C145.266 25.904 143.186 22.9327 142.443 21.447C143.186 20.9518 145.117 19.9614 146.9 19.9614C149.129 19.9614 152.1 22.9327 152.843 25.1612C153.586 27.3897 150.614 25.904 147.643 25.904Z" fill="#89CB93"/>
<path d="M138.729 11.7902C136.946 11.196 131.053 19.4662 128.329 23.6755C128.546 23.3457 129.592 22.5868 132.044 22.1899C135.108 21.6937 140.958 12.5331 138.729 11.7902Z" fill="#89CB93"/>
<path d="M140.215 32.5895C144.672 31.1039 136.501 24.4184 135.758 24.4184H129.072C128.33 24.4184 129.072 26.6469 130.558 29.6182C132.044 32.5895 135.758 34.0752 140.215 32.5895Z" fill="#89CB93"/>
<path d="M123.873 29.6182C123.873 26.6469 116.444 22.9327 112.73 21.447C113.968 22.9327 116.89 26.7954 118.673 30.361C120.901 34.818 123.873 33.3323 123.873 29.6182Z" fill="#89CB93"/>
<path d="M123.13 9.56171C123.873 8.81888 123.873 2.1334 120.158 7.33322C118.08 10.2433 112.244 13.3231 107.23 15.5044C112.283 13.7711 122.535 10.156 123.13 9.56171Z" fill="#89CB93"/>
<path d="M107.53 5.10474C103.964 6.88754 104.559 11.7902 105.302 14.0187C105.302 14.7616 105.45 15.8015 106.045 14.0187C106.788 11.7902 114.959 7.33324 115.701 3.61908C116.444 -0.0950809 111.987 2.87625 107.53 5.10474Z" fill="#89CB93"/>
<path fill-rule="evenodd" clip-rule="evenodd" d="M89.3403 11.7067C89.3865 11.5068 89.5859 11.3822 89.7858 11.4283C91.4018 11.8013 93.8641 12.4354 96.0007 13.1268C97.0678 13.4721 98.0634 13.8349 98.8342 14.1897C99.2191 14.3669 99.5576 14.5465 99.824 14.726C100.079 14.8978 100.315 15.1001 100.434 15.3383C100.454 15.3772 100.504 15.4477 100.608 15.5491C100.709 15.647 100.845 15.759 101.016 15.8832C101.356 16.1315 101.814 16.4131 102.358 16.7107C103.444 17.3051 104.845 17.9484 106.271 18.5008C107.7 19.0537 109.14 19.5097 110.305 19.736C110.89 19.8495 111.389 19.902 111.776 19.8862C112.181 19.8698 112.384 19.7818 112.467 19.6987C112.564 19.6021 112.706 19.5664 112.837 19.6056C115.297 20.3436 119.401 21.342 123.7 21.9333C128.012 22.5264 132.468 22.7021 135.66 21.8315C139.703 20.7288 143.387 18.8886 146.541 17.2189C146.963 16.9952 147.377 16.7742 147.781 16.5584C148.88 15.9715 149.907 15.4227 150.845 14.9621C152.126 14.3334 153.277 13.8503 154.256 13.6545C156.136 13.2784 159.508 12.9035 162.234 12.9975C163.587 13.0442 164.833 13.2072 165.657 13.5751C166.07 13.7592 166.431 14.0184 166.615 14.3931C166.809 14.7877 166.768 15.2267 166.546 15.6705C166.119 16.5253 165.191 17.2213 164.047 17.7455C162.892 18.2752 161.461 18.6549 159.946 18.8443C156.939 19.2201 153.503 18.8564 151.171 17.312L149.706 16.5794C149.645 16.5493 149.597 16.5051 149.562 16.4527C149.106 16.693 148.632 16.9458 148.142 17.2076C147.736 17.4247 147.318 17.648 146.888 17.8754C143.728 19.5484 139.983 21.4224 135.856 22.5482C132.511 23.4604 127.929 23.2648 123.599 22.6692C119.362 22.0865 115.316 21.1133 112.807 20.3718C112.53 20.5474 112.17 20.6137 111.806 20.6285C111.338 20.6475 110.775 20.584 110.164 20.4653C108.938 20.2273 107.453 19.7548 106.003 19.1935C104.552 18.6316 103.12 17.9749 102.001 17.3623C101.442 17.0563 100.954 16.7575 100.578 16.4835C100.39 16.3466 100.225 16.212 100.091 16.0821C99.9608 15.9557 99.8431 15.8173 99.7697 15.6705C99.7402 15.6115 99.6405 15.4982 99.4089 15.342C99.1888 15.1937 98.8901 15.0332 98.5236 14.8645C97.7917 14.5276 96.8281 14.1753 95.772 13.8335C93.662 13.1507 91.2216 12.522 89.6187 12.1521C89.4189 12.106 89.2942 11.9066 89.3403 11.7067ZM150.322 16.0571L151.523 16.6578C151.537 16.6647 151.55 16.6725 151.563 16.681C153.687 18.0971 156.927 18.4731 159.854 18.1072C161.31 17.9251 162.665 17.562 163.738 17.0702C164.822 16.5731 165.566 15.9691 165.882 15.3383C166.031 15.0393 166.013 14.8515 165.949 14.7209C165.875 14.5704 165.696 14.4059 165.355 14.2534C164.67 13.9481 163.549 13.7861 162.208 13.7399C159.549 13.6482 156.235 14.0162 154.401 14.3829C153.523 14.5585 152.446 15.004 151.173 15.6289C150.897 15.7644 150.613 15.9075 150.322 16.0571Z" fill="black"/>
<path fill-rule="evenodd" clip-rule="evenodd" d="M154.753 10.9469L155.334 11.5276C155.354 11.5471 155.371 11.5686 155.385 11.5916C155.473 11.6076 155.641 11.6168 155.925 11.5879C156.553 11.5239 157.637 11.2862 159.411 10.695C160.476 10.3399 161.153 9.86294 161.562 9.36167C161.969 8.86348 162.128 8.32108 162.128 7.7975C162.128 7.26864 161.965 6.75238 161.715 6.32537C161.462 5.89405 161.139 5.58241 160.848 5.43694C160.791 5.40846 160.663 5.38864 160.416 5.46941C160.177 5.54745 159.883 5.70132 159.549 5.92447C158.882 6.36926 158.112 7.04637 157.377 7.78157C156.644 8.51463 155.957 9.29287 155.456 9.93048C155.205 10.2499 155.005 10.5286 154.87 10.7452C154.821 10.8242 154.782 10.8914 154.753 10.9469ZM155.323 11.575C155.323 11.575 155.325 11.5757 155.329 11.5775C155.324 11.576 155.322 11.5751 155.323 11.575ZM160.185 4.76327C160.506 4.65834 160.866 4.6153 161.18 4.77253C161.632 4.99848 162.051 5.42967 162.356 5.95011C162.663 6.47485 162.871 7.11926 162.871 7.7975C162.871 8.48102 162.659 9.19215 162.137 9.83142C161.618 10.4676 160.809 11.0121 159.646 11.3997C157.854 11.9971 156.709 12.2547 156 12.3269C155.65 12.3625 155.377 12.3563 155.176 12.3061C155.045 12.2732 154.826 12.1843 154.738 11.9823L154.066 11.31C153.996 11.2404 153.957 11.1459 153.957 11.0474C153.957 10.9157 154.008 10.7868 154.05 10.6957C154.097 10.5914 154.163 10.4748 154.24 10.3515C154.395 10.1038 154.613 9.8021 154.872 9.47154C155.393 8.80919 156.099 8.00891 156.852 7.25631C157.602 6.50585 158.411 5.79015 159.137 5.3064C159.498 5.06528 159.855 4.87094 160.185 4.76327Z" fill="black"/>
<path fill-rule="evenodd" clip-rule="evenodd" d="M151.244 7.00526C151.12 6.88494 150.777 6.76974 149.952 6.95299C146.774 7.65921 144.615 10.3191 143.145 13.1677C141.967 15.4489 141.267 17.778 140.838 19.2031C140.755 19.4781 140.683 19.7194 140.619 19.9203C140.696 19.9211 140.813 19.9086 140.978 19.8758C141.124 19.8465 141.274 19.809 141.433 19.7691C141.518 19.748 141.605 19.7261 141.696 19.7045C141.914 19.6526 142.155 19.6014 142.372 19.5916C142.399 19.574 142.439 19.5457 142.492 19.5036C142.616 19.4054 142.785 19.2554 142.994 19.0569C143.409 18.6615 143.96 18.0937 144.584 17.4125C145.83 16.0504 147.353 14.25 148.644 12.4985C149.946 10.731 150.973 9.0638 151.278 7.95455C151.435 7.37985 151.357 7.11456 151.244 7.00526ZM142.626 20.295C142.59 20.3097 142.524 20.3328 142.443 20.3328C142.306 20.3328 142.113 20.3688 141.868 20.4272C141.795 20.4444 141.718 20.4638 141.638 20.4838C141.468 20.5263 141.287 20.5715 141.123 20.6042C140.891 20.6505 140.612 20.6913 140.375 20.6367C140.247 20.6071 140.103 20.5434 139.994 20.4116C139.883 20.2779 139.843 20.1169 139.843 19.9614C139.843 19.9215 139.85 19.8818 139.862 19.8439C139.932 19.6362 140.016 19.3567 140.117 19.0199C140.542 17.6049 141.27 15.1796 142.485 12.827C143.986 9.91861 146.284 7.0073 149.791 6.22785C150.638 6.03969 151.339 6.06377 151.761 6.47155C152.193 6.89036 152.161 7.54201 151.994 8.15119C151.649 9.40973 150.54 11.1781 149.242 12.9391C147.933 14.716 146.392 16.5369 145.131 17.914C144.501 18.6024 143.938 19.1837 143.506 19.5949C143.291 19.7998 143.103 19.9675 142.953 20.0862C142.879 20.145 142.806 20.1977 142.74 20.2375C142.706 20.2574 142.668 20.2782 142.626 20.295Z" fill="black"/>
<path fill-rule="evenodd" clip-rule="evenodd" d="M144.148 18.6865C144.969 18.3681 145.946 18.1043 146.9 18.1043C148.157 18.1043 149.545 18.926 150.68 19.9661C151.825 21.0156 152.798 22.3663 153.195 23.5581C153.387 24.1346 153.415 24.6888 152.992 25.0233C152.805 25.1708 152.573 25.2333 152.35 25.2589C152.123 25.2848 151.868 25.2767 151.602 25.2525C151.227 25.2184 150.787 25.1473 150.323 25.0725C150.137 25.0425 149.948 25.0119 149.758 24.9828C149.078 24.8792 148.357 24.7898 147.643 24.7898C146.303 24.7898 145.098 23.9586 144.165 23.007C143.223 22.0456 142.496 20.8978 142.111 20.1275C142.027 19.9599 142.081 19.7562 142.237 19.6523C142.631 19.3896 143.324 19.0057 144.148 18.6865ZM142.932 20.0936C143.316 20.7903 143.933 21.7085 144.696 22.487C145.583 23.3925 146.606 24.0469 147.643 24.0469C148.415 24.0469 149.18 24.1433 149.87 24.2485C150.079 24.2805 150.28 24.3129 150.471 24.3437C150.922 24.4165 151.321 24.4811 151.669 24.5127C151.914 24.535 152.112 24.5385 152.265 24.5209C152.422 24.5029 152.498 24.4668 152.532 24.4402C152.549 24.4265 152.67 24.3307 152.491 23.793C152.145 22.7563 151.261 21.5071 150.178 20.5137C149.084 19.5111 147.872 18.8471 146.9 18.8471C146.072 18.8471 145.192 19.0786 144.416 19.3791C143.819 19.6105 143.299 19.8771 142.932 20.0936Z" fill="black"/>
<path fill-rule="evenodd" clip-rule="evenodd" d="M129.582 20.9664C130.181 20.7281 130.97 20.5018 131.984 20.3376C132.294 20.2875 132.669 20.1211 133.096 19.8364C133.519 19.5542 133.972 19.17 134.433 18.7112C135.354 17.7935 136.287 16.6009 137.059 15.3965C137.833 14.1885 138.43 12.9922 138.699 12.0692C138.835 11.6033 138.876 11.2431 138.84 10.9983C138.807 10.7738 138.722 10.6938 138.612 10.6569C138.537 10.6322 138.368 10.636 138.055 10.8006C137.757 10.9577 137.396 11.2258 136.983 11.5957C136.159 12.3333 135.185 13.4247 134.171 14.6793C132.567 16.6641 130.886 19.0269 129.582 20.9664ZM137.709 10.1433C138.071 9.95298 138.475 9.8284 138.847 9.95221C139.293 10.101 139.513 10.4698 139.575 10.8904C139.634 11.2907 139.559 11.7719 139.412 12.277C139.115 13.2961 138.477 14.5602 137.684 15.7973C136.889 17.0379 135.924 18.2749 134.957 19.2376C134.473 19.719 133.983 20.1376 133.508 20.4543C133.037 20.7685 132.56 20.9969 132.103 21.0708C130.905 21.2648 130.065 21.545 129.507 21.8081C128.933 22.0787 128.692 22.3146 128.64 22.3937C128.528 22.5648 128.298 22.6128 128.127 22.501C127.955 22.3893 127.906 22.1599 128.018 21.9881C129.384 19.877 131.546 16.7455 133.593 14.2124C134.616 12.9476 135.619 11.8198 136.487 11.0423C136.92 10.6547 137.333 10.3413 137.709 10.1433Z" fill="black"/>
<path fill-rule="evenodd" clip-rule="evenodd" d="M129.335 24.3116C129.605 25.2095 130.151 26.487 130.89 27.9664C132.273 30.7326 135.77 32.194 140.098 30.7515C140.601 30.5837 140.876 30.3595 141.018 30.1304C141.159 29.9037 141.202 29.6203 141.138 29.2663C141.005 28.5335 140.436 27.6223 139.653 26.7017C138.882 25.7944 137.948 24.928 137.16 24.2889C136.767 23.9694 136.415 23.7109 136.143 23.5343C136.007 23.4456 135.896 23.3815 135.815 23.3409C135.775 23.3215 135.748 23.3101 135.731 23.3041H129.156C129.155 23.3155 129.154 23.3288 129.153 23.3442C129.145 23.5338 129.198 23.8551 129.335 24.3116ZM128.56 22.8178C128.685 22.6445 128.872 22.5613 129.072 22.5613H135.758C135.841 22.5613 135.917 22.5828 135.969 22.6005C136.026 22.6201 136.086 22.6463 136.144 22.6753C136.262 22.7335 136.399 22.8144 136.548 22.9114C136.848 23.1063 137.221 23.3816 137.629 23.7121C138.443 24.373 139.412 25.2708 140.219 26.2206C141.015 27.157 141.699 28.1958 141.869 29.1343C141.956 29.616 141.912 30.0987 141.649 30.522C141.388 30.9429 140.943 31.2526 140.332 31.4562C135.746 32.985 131.814 31.4751 130.226 28.2986C129.48 26.8067 128.912 25.4843 128.624 24.5251C128.482 24.0531 128.397 23.6315 128.411 23.3105C128.419 23.1512 128.452 22.9688 128.56 22.8178Z" fill="black"/>
<path fill-rule="evenodd" clip-rule="evenodd" d="M128.727 12.3414C127.748 12.1632 126.12 12.1616 123.872 12.1616C122.855 12.1616 121.716 12.5886 120.545 13.2821C119.38 13.9722 118.217 14.9057 117.159 15.8715C116.102 16.8361 115.159 17.8254 114.432 18.6217C114.069 19.0197 113.76 19.3688 113.518 19.6429L113.489 19.6751C113.465 19.7029 113.441 19.7301 113.417 19.7566C115.67 20.0109 119 20.3328 120.901 20.3328C121.536 20.3328 122.344 20.0088 123.244 19.4386C124.134 18.8756 125.066 18.1037 125.938 17.2775C126.809 16.4526 127.612 15.5812 128.241 14.8256C128.878 14.0614 129.318 13.4396 129.483 13.1098C129.639 12.7976 129.578 12.6988 129.541 12.6548C129.459 12.5558 129.232 12.4331 128.727 12.3414ZM112.513 19.6515C112.34 19.6308 112.18 19.6112 112.033 19.5928C111.83 19.5674 111.644 19.7118 111.619 19.9153C111.593 20.1188 111.738 20.3045 111.941 20.3299C113.919 20.5772 118.498 21.0756 120.901 21.0756C121.752 21.0756 122.709 20.6568 123.642 20.0663C124.586 19.4686 125.557 18.662 126.449 17.8168C127.343 16.9704 128.165 16.0776 128.812 15.3011C129.452 14.5332 129.941 13.855 130.147 13.442C130.363 13.0114 130.424 12.553 130.112 12.1792C129.846 11.8603 129.377 11.7045 128.86 11.6105C127.806 11.4188 126.11 11.4188 123.927 11.4188L123.872 11.4188C122.662 11.4188 121.386 11.9204 120.166 12.6429C118.941 13.3688 117.736 14.3389 116.658 15.323C115.579 16.3083 114.619 17.3154 113.883 18.1208C113.516 18.5237 113.203 18.8767 112.961 19.1511C112.753 19.3867 112.604 19.5549 112.513 19.6515Z" fill="black"/>
<path fill-rule="evenodd" clip-rule="evenodd" d="M112.43 19.7431C112.529 19.6055 112.71 19.5534 112.868 19.6165C114.739 20.365 117.547 21.675 119.894 23.177C121.067 23.9273 122.139 24.7349 122.922 25.5545C123.695 26.3625 124.244 27.2418 124.244 28.1325C124.244 29.1077 124.049 29.9595 123.702 30.616C123.354 31.272 122.842 31.7531 122.206 31.9264C121.563 32.1017 120.869 31.9425 120.207 31.4625C119.551 30.9864 118.914 30.1881 118.34 29.0414C116.576 25.5122 113.674 21.6745 112.445 20.1991C112.336 20.0685 112.33 19.8806 112.43 19.7431ZM113.932 20.8711C115.381 22.7462 117.56 25.8197 119.005 28.7092C119.546 29.7911 120.116 30.4784 120.643 30.8612C121.166 31.2402 121.632 31.3131 122.011 31.2098C122.396 31.1046 122.766 30.7964 123.045 30.2685C123.324 29.7412 123.501 29.0144 123.501 28.1325C123.501 27.5375 123.122 26.8383 122.385 26.0678C121.66 25.3089 120.643 24.538 119.494 23.8027C117.705 22.6576 115.632 21.6216 113.932 20.8711Z" fill="black"/>
<path fill-rule="evenodd" clip-rule="evenodd" d="M121.629 4.69802C121.303 4.98633 120.916 5.42654 120.461 6.06343C119.374 7.58448 117.339 9.11436 114.986 10.525C114.415 10.8675 113.822 11.2045 113.217 11.5341C114.401 11.113 115.596 10.6837 116.724 10.2714C118.358 9.67445 119.849 9.11419 120.967 8.66671C121.527 8.44276 121.989 8.24865 122.328 8.09329C122.498 8.01545 122.632 7.94938 122.731 7.89574C122.817 7.84878 122.854 7.82209 122.865 7.81487C122.867 7.81282 122.868 7.81234 122.867 7.81341L122.867 7.81347C122.867 7.81346 122.873 7.80728 122.883 7.79105C122.894 7.77435 122.907 7.75071 122.921 7.71883C122.95 7.65446 122.98 7.56789 123.008 7.45964C123.065 7.24322 123.109 6.96495 123.131 6.65677C123.175 6.03379 123.128 5.34463 122.963 4.85075C122.88 4.60285 122.78 4.43876 122.679 4.34826C122.593 4.2716 122.499 4.23777 122.36 4.26304C122.2 4.29228 121.959 4.40626 121.629 4.69802ZM107.365 14.3652C109.892 13.498 113.713 12.1627 116.979 10.9691C118.615 10.3713 120.114 9.80805 121.243 9.35639C121.807 9.13077 122.283 8.93142 122.638 8.76855C122.815 8.68728 122.967 8.61306 123.087 8.5476C123.194 8.48883 123.313 8.41782 123.392 8.33868C123.561 8.17032 123.661 7.8985 123.727 7.64784C123.798 7.37678 123.847 7.0515 123.872 6.7097C123.92 6.03272 123.875 5.23622 123.668 4.61585C123.565 4.30663 123.41 4.00646 123.174 3.79517C122.923 3.57006 122.599 3.46461 122.228 3.53219C121.878 3.59581 121.515 3.80681 121.137 4.14182C120.754 4.48028 120.33 4.96861 119.856 5.63167C118.864 7.02075 116.942 8.48581 114.604 9.88792C112.277 11.2831 109.581 12.5912 107.082 13.6781C104.937 14.6113 102.944 15.379 101.465 15.8966C101.271 15.9644 101.169 16.1763 101.237 16.3699C101.305 16.5635 101.517 16.6655 101.71 16.5978C103.204 16.0751 105.209 15.3028 107.365 14.3652Z" fill="black"/>
<path fill-rule="evenodd" clip-rule="evenodd" d="M109.805 2.85969C109.118 3.22181 108.405 3.5971 107.696 3.95128C106.065 4.76708 105.365 6.29852 105.169 7.95256C104.973 9.6123 105.295 11.339 105.654 12.4156C105.661 12.4375 105.666 12.46 105.67 12.4827C105.677 12.4609 105.685 12.4385 105.692 12.4156C105.808 12.0677 106.055 11.7102 106.361 11.3558C106.672 10.9961 107.069 10.6126 107.515 10.2135C108.118 9.67352 108.833 9.08759 109.575 8.47912C109.925 8.19195 110.282 7.89977 110.635 7.60503C111.748 6.67803 112.845 5.71704 113.708 4.7627C114.579 3.80032 115.172 2.88738 115.337 2.06057C115.425 1.61984 115.427 1.31775 115.384 1.11944C115.343 0.935142 115.268 0.855559 115.187 0.811323C115.089 0.757864 114.923 0.724995 114.656 0.753072C114.394 0.78072 114.07 0.863483 113.689 0.997993C112.927 1.2671 111.995 1.72038 110.962 2.25444C110.589 2.44748 110.201 2.65141 109.805 2.85969ZM116.109 0.959521C116.184 1.30092 116.163 1.71845 116.066 2.20625C115.859 3.23653 115.152 4.27352 114.259 5.26107C113.358 6.25666 112.227 7.24561 111.111 8.17569C110.745 8.48023 110.383 8.7776 110.029 9.06718C109.295 9.66935 108.602 10.2378 108.01 10.7671C107.574 11.1572 107.204 11.5166 106.923 11.8416C106.638 12.172 106.467 12.4413 106.397 12.6505C106.247 13.099 106.113 13.412 105.984 13.6003C105.925 13.6854 105.825 13.8097 105.67 13.8634C105.58 13.8946 105.476 13.8996 105.375 13.8645C105.279 13.8315 105.212 13.7725 105.168 13.7219C105.088 13.6283 105.047 13.5142 105.023 13.4333C104.997 13.3431 104.979 13.2437 104.966 13.1462C104.942 12.9705 104.932 12.7736 104.93 12.5936C104.554 11.4386 104.223 9.63047 104.431 7.8653C104.644 6.06518 105.43 4.25387 107.364 3.28687C108.067 2.93535 108.765 2.56768 109.448 2.2086C109.845 1.99936 110.237 1.79304 110.621 1.59454C111.654 1.06079 112.626 0.585529 113.442 0.297508C113.85 0.153456 114.235 0.0505104 114.579 0.0143216C114.918 -0.0214387 115.258 0.00372654 115.543 0.159189C115.845 0.323874 116.031 0.6041 116.109 0.959521Z" fill="black"/>
</svg>
